<svg xmlns="http://www.w3.org/2000/svg" viewBox="0 0 197.86 243.3"><defs><style>.cls-1{fill:#35b297;}.cls-2{fill:#394a5b;}.cls-3,.cls-4{fill:none;}.cls-3{stroke:#35b297;stroke-miterlimit:10;}.cls-5{fill:#36b397;}.cls-6{fill:#bf4055;}.cls-7{fill:#fff;}</style></defs><title>kici kot 3</title><g id="Warstwa_2" data-name="Warstwa 2"><path class="cls-1" d="M167.69,32,54.61,18.25c-8.24-1-15.84,5.79-17,15.16L15.14,218.8C14,228.17,19.76,236.58,28,237.58l113.07,13.71c8.25,1,15.85-5.78,17-15.15l22.49-185.4C181.69,41.37,175.93,33,167.69,32ZM154.4,228.69c-1.13,9.37-8.74,16.15-17,15.15L33.35,231.22c-8.25-1-14-9.41-12.87-18.78L41.29,40.86c1.14-9.37,8.74-16.16,17-15.16L162.35,38.33c8.24,1,14,9.41,12.87,18.78Z" transform="translate(17.16 -18.15)"/></g><g id="Warstwa_3" data-name="Warstwa 3"><line class="cls-2" x1="91.75" y1="16.58" x2="91.99" y2="16.85"/><line class="cls-2" x1="93.72" y1="26.22" x2="93.96" y2="26.49"/></g><g id="Warstwa_4" data-name="Warstwa 4"><polygon class="cls-1" points="173.25 35.9 175.14 42.19 181.29 44.11 176.02 47.96 176.09 54.56 170.94 50.64 164.84 52.8 166.92 46.53 163.08 41.27 169.52 41.31 173.25 35.9"/><polygon class="cls-3" points="161.76 122.65 163.43 127.9 168.76 129.53 164.22 132.7 164.32 138.19 159.84 134.91 154.57 136.67 156.34 131.47 152.99 127.06 158.56 127.14 161.76 122.65"/><polygon class="cls-1" points="167.97 79.06 169.86 85.33 175.99 87.25 170.74 91.07 170.81 97.64 165.67 93.74 159.59 95.89 161.66 89.65 157.83 84.41 164.25 84.45 167.97 79.06"/><rect x="55.72" y="187.53" width="38" height="2.79" rx="1.28" transform="translate(39.39 -25.49) rotate(6.6)"/><polygon class="cls-3" points="156.1 165.44 157.84 170.73 163.34 172.39 158.68 175.57 158.8 181.1 154.17 177.77 148.75 179.53 150.55 174.3 147.08 169.85 152.82 169.94 156.1 165.44"/><path class="cls-4" d="M32.88,164.34l23.47,4.79-4.79,23.48-23.48-4.79Z" transform="translate(17.16 -18.15)"/><path class="cls-5" d="M44.21,168.69A10,10,0,1,0,52,180.47,10,10,0,0,0,44.21,168.69ZM40.62,186.3A8,8,0,1,1,50,180.07,8,8,0,0,1,40.62,186.3Zm7-11.23-7.76,5.13-2-3-1.66,1.09L39.26,183l9.43-6.23Z" transform="translate(17.16 -18.15)"/><path class="cls-4" d="M42.86,79.44l23.48,4.8-4.8,23.47-23.47-4.79Z" transform="translate(17.16 -18.15)"/><path class="cls-5" d="M54.2,83.8A10,10,0,1,0,62,95.58,10,10,0,0,0,54.2,83.8Zm-3.6,17.6A8,8,0,1,1,60,95.18,8,8,0,0,1,50.6,101.4Zm7-11.23L49.81,95.3l-2-3-1.66,1.1,3.12,4.71,9.42-6.23Z" transform="translate(17.16 -18.15)"/><path class="cls-4" d="M-17.16,77.73h24v24h-24Z" transform="translate(17.16 -18.15)"/><path class="cls-5" d="M58.67,40.94a10,10,0,1,0,10,10A10,10,0,0,0,58.67,40.94Zm-2,15-5-5,1.41-1.41,3.59,3.58,7.59-7.59,1.41,1.42Z" transform="translate(17.16 -18.15)"/><path class="cls-5" d="M48.07,126.16a10,10,0,1,0,10,10A10,10,0,0,0,48.07,126.16Zm-2,15-5-5,1.41-1.41,3.59,3.58,7.59-7.59,1.41,1.42Z" transform="translate(17.16 -18.15)"/><rect x="56.22" y="183.16" width="66.59" height="2.79" rx="1.28" transform="translate(38.98 -27.23) rotate(6.6)"/><rect x="56.99" y="175.98" width="47.49" height="2.79" rx="1.28" transform="translate(38.1 -26.26) rotate(6.6)"/><rect x="61.01" y="146.75" width="60.58" height="2.79" rx="1.28" transform="translate(34.81 -27.67) rotate(6.6)"/><rect x="61.59" y="141.09" width="66.59" height="2.79" rx="1.28" transform="translate(34.18 -28.12) rotate(6.6)"/><rect x="62.31" y="134.62" width="59.84" height="2.79" rx="1.28" transform="translate(33.42 -27.86) rotate(6.6)"/><rect x="66.5" y="102.93" width="38" height="2.79" rx="1.28" transform="translate(29.73 -27.3) rotate(6.6)"/><rect x="67" y="98.56" width="66.59" height="2.79" rx="1.28" transform="translate(29.32 -29.03) rotate(6.6)"/><rect x="67.7" y="92.53" width="67.4" height="2.79" rx="1.28" transform="translate(28.64 -29.19) rotate(6.6)"/><rect x="71.36" y="61.25" width="49.52" height="2.79" rx="1.28" transform="translate(25.01 -28.79) rotate(6.6)"/><rect x="71.9" y="56.22" width="66.59" height="2.79" rx="1.28" transform="translate(24.49 -29.87) rotate(6.6)"/><rect x="72.6" y="50.21" width="67.78" height="2.79" rx="1.28" transform="translate(23.81 -30.06) rotate(6.6)"/></g><g id="Warstwa_5" data-name="Warstwa 5"><circle class="cls-6" cx="158.57" cy="213.81" r="29.49"/><rect class="cls-7" x="157.97" y="196.88" width="3.99" height="32.59"/><rect class="cls-7" x="140.22" y="215.6" width="3.99" height="32.71" transform="translate(391.34 71.59) rotate(90)"/></g></svg>