<svg xmlns="http://www.w3.org/2000/svg" viewBox="0 0 185.08 60.08"><defs><style>.cls-1,.cls-2,.cls-5{fill:none;}.cls-1{stroke:#35b297;stroke-width:3.5px;}.cls-1,.cls-5{stroke-miterlimit:10;}.cls-3{fill:#36b397;}.cls-4{fill:#bf4155;}.cls-5{stroke:#fff;stroke-width:2px;}</style></defs><title>kici kot 2</title><g id="Warstwa_1" data-name="Warstwa 1"><rect x="48.37" y="27.6" width="73.02" height="4.07" rx="1.47" transform="translate(-4.72 -19.68) rotate(-0.23)"/><rect x="48.76" y="37.32" width="96.83" height="4.07" rx="1.77" transform="translate(-4.76 -19.63) rotate(-0.23)"/><rect x="48.27" y="47.02" width="59.92" height="4.07" rx="1.81" transform="translate(-4.8 -19.71) rotate(-0.23)"/><polygon class="cls-1" points="170.82 9.04 174.08 15.59 181.32 16.61 176.11 21.74 177.37 28.94 170.88 25.57 164.42 29 165.63 21.78 160.37 16.7 167.6 15.61 170.82 9.04"/><path class="cls-2" d="M4.6,20H43.85V59.27H4.6Z" transform="translate(-4.6 -20.02)"/><path class="cls-3" d="M24.23,23.29A16.36,16.36,0,1,0,40.58,39.64,16.36,16.36,0,0,0,24.23,23.29Zm0,29.44A13.09,13.09,0,1,1,37.31,39.64,13.1,13.1,0,0,1,24.23,52.73Zm7.5-20.31L21,43.19,16.72,39l-2.31,2.31L21,47.82,34,34.74Z" transform="translate(-4.6 -20.02)"/></g><g id="Warstwa_2" data-name="Warstwa 2"><circle class="cls-4" cx="160.37" cy="37.42" r="22.66"/><circle class="cls-5" cx="158.03" cy="34.46" r="7.56"/><line class="cls-5" x1="162.76" y1="40.36" x2="173.74" y2="50.28"/></g></svg>